<svg width="9" height="7" viewBox="0 0 9 7" fill="none" xmlns="http://www.w3.org/2000/svg">
<path fill-rule="evenodd" clip-rule="evenodd" d="M4.4051 0.204951C4.53637 0.0737209 4.71439 0 4.9 0C5.08562 0 5.26363 0.0737209 5.3949 0.204951L8.1949 3.00495C8.32613 3.13622 8.39985 3.31424 8.39985 3.49985C8.39985 3.68547 8.32613 3.86348 8.1949 3.99475L5.3949 6.79475C5.26288 6.92226 5.08606 6.99282 4.90252 6.99122C4.71898 6.98963 4.54341 6.91601 4.41363 6.78622C4.28384 6.65644 4.21022 6.48087 4.20863 6.29733C4.20703 6.11379 4.27759 5.93697 4.4051 5.80495L6.0102 4.19985H0.7C0.514349 4.19985 0.336301 4.1261 0.205025 3.99483C0.0737499 3.86355 0 3.6855 0 3.49985C0 3.3142 0.0737499 3.13615 0.205025 3.00488C0.336301 2.8736 0.514349 2.79985 0.7 2.79985H6.0102L4.4051 1.19475C4.27387 1.06348 4.20015 0.885465 4.20015 0.69985C4.20015 0.514236 4.27387 0.33622 4.4051 0.204951Z" fill="#F5F5F5"/>
</svg>
