<svg width="163" height="35" viewBox="0 0 163 35" fill="none" xmlns="http://www.w3.org/2000/svg">
<path d="M4.584 29.704L0.48 28.936C1.248 25.832 2.048 23.024 2.88 20.512C3.728 18 4.6 15.848 5.496 14.056C6.392 12.264 7.304 10.888 8.232 9.928C9.176 8.952 10.12 8.464 11.064 8.464C12.968 8.464 14.72 10.232 16.32 13.768C17.92 17.288 19.28 22.392 20.4 29.08L16.152 29.656C15.96 28.6 15.752 27.52 15.528 26.416C15.304 25.296 15.072 24.208 14.832 23.152C14.448 23.136 14.032 23.128 13.584 23.128C12.8 23.128 11.968 23.144 11.088 23.176C10.224 23.208 9.368 23.264 8.52 23.344C7.688 23.408 6.912 23.48 6.192 23.56C5.888 24.584 5.592 25.624 5.304 26.68C5.032 27.72 4.792 28.728 4.584 29.704ZM9 15.688C8.648 16.44 8.176 17.656 7.584 19.336C8.272 19.256 9 19.2 9.768 19.168C10.536 19.12 11.288 19.096 12.024 19.096C12.648 19.096 13.248 19.112 13.824 19.144C13.6 18.328 13.384 17.6 13.176 16.96C12.984 16.32 12.808 15.816 12.648 15.448C12.312 14.584 12.016 13.976 11.76 13.624C11.504 13.256 11.24 13.072 10.968 13.072C10.68 13.072 10.392 13.264 10.104 13.648C9.816 14.016 9.448 14.696 9 15.688ZM27.5559 28.12C26.5479 28.12 25.6919 27.968 24.9879 27.664C24.2839 27.36 23.6999 26.968 23.2359 26.488C22.7879 25.992 22.4359 25.464 22.1799 24.904C21.9239 24.328 21.7479 23.776 21.6519 23.248C21.5559 22.704 21.5079 22.232 21.5079 21.832C21.5079 21.064 21.6119 20.272 21.8199 19.456C22.0439 18.64 22.4119 17.88 22.9239 17.176C23.4519 16.472 24.1639 15.904 25.0599 15.472C25.9719 15.04 27.1159 14.824 28.4919 14.824C28.9079 14.824 29.2919 14.856 29.6439 14.92C29.9959 14.984 30.3239 15.072 30.6279 15.184V14.392H34.7799C34.7639 15.352 34.7479 16.44 34.7319 17.656C34.7159 18.856 34.7079 20.216 34.7079 21.736C34.7079 22.52 34.7079 23.344 34.7079 24.208C34.7239 25.056 34.7319 25.984 34.7319 26.992C34.7319 28.368 34.5479 29.496 34.1799 30.376C33.8119 31.256 33.3399 31.936 32.7639 32.416C32.1879 32.896 31.5879 33.24 30.9639 33.448C30.3559 33.672 29.7879 33.8 29.2599 33.832C28.7479 33.88 28.3639 33.904 28.1079 33.904C27.4839 33.904 26.7959 33.832 26.0439 33.688C25.2919 33.56 24.5399 33.344 23.7879 33.04C23.0359 32.752 22.3479 32.376 21.7239 31.912L23.4759 28.264C23.8759 28.6 24.2759 28.904 24.6759 29.176C25.0759 29.464 25.5399 29.688 26.0679 29.848C26.5959 30.024 27.2519 30.112 28.0359 30.112C28.8359 30.112 29.4279 29.968 29.8119 29.68C30.1959 29.408 30.4439 29.04 30.5559 28.576C30.6839 28.128 30.7559 27.632 30.7719 27.088C30.2279 27.488 29.6759 27.76 29.1159 27.904C28.5559 28.048 28.0359 28.12 27.5559 28.12ZM25.1079 21.496C25.1079 22.408 25.3559 23.128 25.8519 23.656C26.3639 24.184 27.0599 24.448 27.9399 24.448C29.1719 24.448 30.0919 23.736 30.6999 22.312C30.6999 21.8 30.6919 21.28 30.6759 20.752C30.6759 20.208 30.6679 19.68 30.6519 19.168C30.0119 18.752 29.2759 18.544 28.4439 18.544C27.4199 18.544 26.6039 18.816 25.9959 19.36C25.4039 19.888 25.1079 20.6 25.1079 21.496ZM36.7513 29.872C36.8153 28.544 36.8633 27.216 36.8953 25.888C36.9273 24.56 36.9433 23.248 36.9433 21.952C36.9273 20.768 36.9033 19.6 36.8713 18.448C36.8553 17.28 36.8153 16.152 36.7513 15.064L40.7833 14.944C40.7993 15.536 40.8233 16.144 40.8553 16.768C41.3673 16.128 41.9593 15.616 42.6313 15.232C43.3193 14.832 44.1033 14.632 44.9833 14.632C45.3193 14.632 45.7513 14.68 46.2793 14.776C46.8073 14.872 47.3433 15.056 47.8873 15.328L47.4313 19.384C47.0313 19.144 46.5993 18.976 46.1353 18.88C45.6873 18.768 45.3113 18.712 45.0073 18.712C43.9833 18.712 43.1113 19.176 42.3913 20.104C41.6873 21.016 41.2073 22.288 40.9513 23.92C40.9513 25.04 40.9353 26.112 40.9033 27.136C40.8873 28.144 40.8473 29.056 40.7833 29.872H36.7513ZM48.7988 12.496C48.7988 12.352 48.7908 12.208 48.7748 12.064C48.7748 11.904 48.7748 11.728 48.7748 11.536C48.7748 11.024 48.7908 10.48 48.8228 9.904C48.8548 9.328 48.8868 8.84 48.9188 8.44L53.1908 8.512C53.1428 9.056 53.0868 9.672 53.0228 10.36C52.9748 11.048 52.9428 11.76 52.9268 12.496H48.7988ZM48.7028 29.68C48.6548 28.688 48.6228 27.632 48.6068 26.512C48.5908 25.376 48.5828 24.24 48.5828 23.104C48.5828 21.616 48.5988 20.168 48.6308 18.76C48.6628 17.352 48.7028 16.072 48.7508 14.92L52.8788 14.896C52.8148 15.632 52.7748 16.544 52.7588 17.632C52.7428 18.704 52.7348 19.832 52.7348 21.016C52.7348 22.184 52.7428 23.336 52.7588 24.472C52.7748 25.608 52.7908 26.64 52.8068 27.568C52.8388 28.48 52.8628 29.184 52.8788 29.68H48.7028Z" fill="#F5F5F5"/>
<path d="M64.6549 29.92C62.7029 29.92 61.0069 29.488 59.5669 28.624C58.1269 27.776 57.0149 26.576 56.2309 25.024C55.4469 23.472 55.0549 21.64 55.0549 19.528C55.0549 18.728 55.1509 17.84 55.3429 16.864C55.5509 15.872 55.8789 14.888 56.3269 13.912C56.7749 12.92 57.3749 12.016 58.1269 11.2C58.8789 10.384 59.7989 9.728 60.8869 9.232C61.9749 8.72 63.2549 8.464 64.7269 8.464C65.9909 8.464 67.0949 8.624 68.0389 8.944C68.9829 9.248 69.7989 9.64 70.4869 10.12C71.1749 10.584 71.7429 11.072 72.1909 11.584C72.6549 12.096 73.0229 12.568 73.2949 13C73.5669 13.416 73.7669 13.72 73.8949 13.912L70.4149 16.576C70.0629 15.92 69.6469 15.28 69.1669 14.656C68.6869 14.016 68.0949 13.488 67.3909 13.072C66.6869 12.656 65.8149 12.448 64.7749 12.448C63.7029 12.448 62.8149 12.688 62.1109 13.168C61.4069 13.648 60.8469 14.256 60.4309 14.992C60.0309 15.728 59.7509 16.512 59.5909 17.344C59.4309 18.16 59.3509 18.92 59.3509 19.624C59.3509 20.376 59.4309 21.12 59.5909 21.856C59.7509 22.592 60.0229 23.264 60.4069 23.872C60.8069 24.48 61.3349 24.968 61.9909 25.336C62.6629 25.688 63.5029 25.864 64.5109 25.864C65.6309 25.864 66.5429 25.664 67.2469 25.264C67.9669 24.864 68.5669 24.304 69.0469 23.584C69.5269 22.848 69.9749 21.992 70.3909 21.016L74.3269 22.792C73.6229 24.248 72.8309 25.512 71.9509 26.584C71.0709 27.656 70.0389 28.48 68.8549 29.056C67.6709 29.632 66.2709 29.92 64.6549 29.92ZM81.9253 29.968C80.9013 29.968 80.0533 29.784 79.3813 29.416C78.7253 29.064 78.1973 28.576 77.7973 27.952C77.4133 27.328 77.1253 26.632 76.9333 25.864C76.7573 25.08 76.6373 24.272 76.5733 23.44C76.5253 22.592 76.5013 21.776 76.5013 20.992C76.5013 20.096 76.5253 19.184 76.5733 18.256C76.6373 17.328 76.7013 16.312 76.7653 15.208L81.1573 14.944C81.1093 15.28 81.0373 15.784 80.9413 16.456C80.8453 17.128 80.7573 17.896 80.6773 18.76C80.5973 19.624 80.5573 20.528 80.5573 21.472C80.5573 23.024 80.6933 24.176 80.9653 24.928C81.2373 25.664 81.6453 26.032 82.1893 26.032C83.2773 26.032 84.0773 25.24 84.5893 23.656C85.1013 22.072 85.3573 19.568 85.3573 16.144V15.04L87.3973 14.992L89.8693 14.944C89.6453 16.448 89.4773 17.832 89.3653 19.096C89.2533 20.36 89.1813 21.424 89.1493 22.288C89.1173 23.136 89.1013 23.704 89.1013 23.992C89.1013 24.728 89.1653 25.256 89.2933 25.576C89.4213 25.88 89.6453 26.032 89.9653 26.032C90.1253 26.032 90.3013 26 90.4933 25.936C90.6853 25.872 90.9093 25.76 91.1653 25.6L90.9973 29.728C90.3893 29.824 89.8613 29.872 89.4133 29.872C88.6453 29.872 88.0133 29.728 87.5173 29.44C87.0373 29.152 86.6533 28.768 86.3653 28.288C85.8693 28.816 85.2533 29.224 84.5173 29.512C83.7973 29.816 82.9333 29.968 81.9253 29.968ZM97.8242 29.896C96.9442 29.896 96.2162 29.704 95.6402 29.32C95.0802 28.952 94.6322 28.44 94.2962 27.784C93.9762 27.128 93.7362 26.376 93.5762 25.528C93.4322 24.68 93.3362 23.776 93.2882 22.816C93.2562 21.84 93.2402 20.864 93.2402 19.888C93.2402 19.04 93.2642 18.112 93.3122 17.104C93.3602 16.08 93.4162 15.048 93.4802 14.008C93.5602 12.952 93.6402 11.96 93.7202 11.032C93.8162 10.104 93.9042 9.296 93.9842 8.608L98.3282 8.656C98.2002 9.472 98.0802 10.4 97.9682 11.44C97.8562 12.464 97.7602 13.504 97.6802 14.56C97.6162 15.616 97.5602 16.592 97.5122 17.488C97.4802 18.384 97.4642 19.096 97.4642 19.624C97.4642 21.08 97.4882 22.224 97.5362 23.056C97.6002 23.888 97.6882 24.48 97.8002 24.832C97.9282 25.168 98.0962 25.336 98.3042 25.336C98.5762 25.336 98.8722 25.168 99.1922 24.832C99.5122 24.48 99.8242 24.088 100.128 23.656L102.168 27.712C101.672 28.256 101.08 28.752 100.392 29.2C99.7042 29.664 98.8482 29.896 97.8242 29.896ZM111.43 29.896C110.47 29.896 109.71 29.688 109.15 29.272C108.59 28.872 108.182 28.312 107.926 27.592C107.67 26.872 107.502 26.048 107.422 25.12C107.358 24.192 107.326 23.216 107.326 22.192C107.326 21.136 107.366 20.04 107.446 18.904C106.374 19.048 105.342 19.232 104.35 19.456L103.606 15.688C104.934 15.336 106.35 15.08 107.854 14.92C107.966 14.104 108.086 13.248 108.214 12.352C108.342 11.44 108.486 10.48 108.646 9.472L112.774 9.832C112.582 10.664 112.414 11.496 112.27 12.328C112.126 13.144 111.998 13.936 111.886 14.704C112.782 14.704 113.622 14.728 114.406 14.776C115.206 14.808 115.942 14.872 116.614 14.968L116.134 18.736C115.574 18.672 114.99 18.632 114.382 18.616C113.79 18.584 113.19 18.568 112.582 18.568C112.214 18.568 111.846 18.576 111.478 18.592C111.382 19.76 111.318 20.76 111.286 21.592C111.27 22.424 111.262 23.016 111.262 23.368C111.262 24.248 111.31 24.88 111.406 25.264C111.518 25.648 111.694 25.84 111.934 25.84C112.206 25.84 112.51 25.752 112.846 25.576C113.182 25.384 113.51 25.128 113.83 24.808C114.166 24.488 114.446 24.144 114.67 23.776L116.518 27.64C114.934 29.144 113.238 29.896 111.43 29.896ZM123.644 29.968C122.62 29.968 121.772 29.784 121.1 29.416C120.444 29.064 119.916 28.576 119.516 27.952C119.132 27.328 118.844 26.632 118.652 25.864C118.476 25.08 118.356 24.272 118.292 23.44C118.244 22.592 118.22 21.776 118.22 20.992C118.22 20.096 118.244 19.184 118.292 18.256C118.356 17.328 118.42 16.312 118.484 15.208L122.876 14.944C122.828 15.28 122.756 15.784 122.66 16.456C122.564 17.128 122.476 17.896 122.396 18.76C122.316 19.624 122.276 20.528 122.276 21.472C122.276 23.024 122.412 24.176 122.684 24.928C122.956 25.664 123.364 26.032 123.908 26.032C124.996 26.032 125.796 25.24 126.308 23.656C126.82 22.072 127.076 19.568 127.076 16.144V15.04L129.116 14.992L131.588 14.944C131.364 16.448 131.196 17.832 131.084 19.096C130.972 20.36 130.9 21.424 130.868 22.288C130.836 23.136 130.82 23.704 130.82 23.992C130.82 24.728 130.884 25.256 131.012 25.576C131.14 25.88 131.364 26.032 131.684 26.032C131.844 26.032 132.02 26 132.212 25.936C132.404 25.872 132.628 25.76 132.884 25.6L132.716 29.728C132.108 29.824 131.58 29.872 131.132 29.872C130.364 29.872 129.732 29.728 129.236 29.44C128.756 29.152 128.372 28.768 128.084 28.288C127.588 28.816 126.972 29.224 126.236 29.512C125.516 29.816 124.652 29.968 123.644 29.968ZM134.767 29.872C134.831 28.544 134.879 27.216 134.911 25.888C134.943 24.56 134.959 23.248 134.959 21.952C134.943 20.768 134.919 19.6 134.887 18.448C134.871 17.28 134.831 16.152 134.767 15.064L138.799 14.944C138.815 15.536 138.839 16.144 138.871 16.768C139.383 16.128 139.975 15.616 140.647 15.232C141.335 14.832 142.119 14.632 142.999 14.632C143.335 14.632 143.767 14.68 144.295 14.776C144.823 14.872 145.359 15.056 145.903 15.328L145.447 19.384C145.047 19.144 144.615 18.976 144.151 18.88C143.703 18.768 143.327 18.712 143.023 18.712C141.999 18.712 141.127 19.176 140.407 20.104C139.703 21.016 139.223 22.288 138.967 23.92C138.967 25.04 138.951 26.112 138.919 27.136C138.903 28.144 138.863 29.056 138.799 29.872H134.767ZM152.91 29.896C151.71 29.896 150.622 29.584 149.646 28.96C148.67 28.352 147.894 27.528 147.318 26.488C146.758 25.432 146.478 24.256 146.478 22.96C146.478 21.744 146.702 20.648 147.15 19.672C147.598 18.68 148.206 17.832 148.974 17.128C149.758 16.424 150.646 15.888 151.638 15.52C152.63 15.136 153.67 14.944 154.758 14.944C155.67 14.944 156.566 15.072 157.446 15.328C157.51 14.992 157.566 14.656 157.614 14.32L161.718 15.016C161.606 15.32 161.494 15.776 161.382 16.384C161.27 16.992 161.174 17.672 161.094 18.424C161.03 19.176 160.974 19.928 160.926 20.68C160.878 21.432 160.854 22.112 160.854 22.72C160.854 23.216 160.886 23.704 160.95 24.184C161.03 24.648 161.19 25.032 161.43 25.336C161.67 25.624 162.038 25.768 162.534 25.768H162.87L162.27 29.944C161.214 29.944 160.342 29.76 159.654 29.392C158.966 29.04 158.414 28.56 157.998 27.952C157.31 28.72 156.526 29.232 155.646 29.488C154.766 29.76 153.854 29.896 152.91 29.896ZM150.414 23.44C150.494 24.208 150.806 24.824 151.35 25.288C151.91 25.736 152.614 25.96 153.462 25.96C154.278 25.96 154.958 25.744 155.502 25.312C156.046 24.864 156.494 24.256 156.846 23.488C156.83 23.232 156.822 22.968 156.822 22.696C156.822 22.136 156.838 21.56 156.87 20.968C156.902 20.376 156.942 19.792 156.99 19.216C156.318 18.96 155.614 18.832 154.878 18.832C154.014 18.832 153.238 19.008 152.55 19.36C151.878 19.696 151.35 20.168 150.966 20.776C150.582 21.384 150.39 22.088 150.39 22.888C150.39 22.984 150.39 23.08 150.39 23.176C150.39 23.272 150.398 23.36 150.414 23.44Z" fill="#57AC49"/>
</svg>
