<svg width="21" height="15" viewBox="0 0 21 15" fill="none" xmlns="http://www.w3.org/2000/svg">
<path d="M19.95 3.721L19.925 3.553L19.899 3.559C19.7213 2.72804 19.312 1.96437 18.7183 1.35635C18.1247 0.748335 17.3711 0.320824 16.5446 0.123283C15.7181 -0.0742571 14.8526 -0.0337537 14.0482 0.240108C13.2438 0.513969 12.5334 1.00999 11.9991 1.67079C11.4649 2.33159 11.1286 3.13015 11.0293 3.97408C10.93 4.818 11.0717 5.6728 11.4379 6.43957C11.8042 7.20634 12.3801 7.85373 13.0989 8.30685C13.8178 8.75997 14.6503 9.00029 15.5 9C15.723 9 15.937 8.966 16.15 8.935C16.081 9.167 16.01 9.403 15.896 9.615C15.782 9.923 15.604 10.19 15.427 10.459C15.279 10.75 15.018 10.947 14.826 11.196C14.625 11.438 14.351 11.599 14.134 11.8C13.921 12.01 13.642 12.115 13.42 12.263C13.188 12.396 12.986 12.543 12.77 12.613L12.231 12.835L11.757 13.032L12.241 14.971L12.838 14.827C13.029 14.779 13.262 14.723 13.527 14.656C13.798 14.606 14.087 14.469 14.409 14.344C14.726 14.201 15.095 14.106 15.437 13.877C15.781 13.659 16.178 13.477 16.528 13.185C16.867 12.884 17.276 12.623 17.578 12.241C17.908 11.883 18.234 11.507 18.487 11.079C18.78 10.671 18.979 10.223 19.189 9.78C19.379 9.337 19.532 8.884 19.657 8.444C19.894 7.562 20 6.724 20.041 6.007C20.075 5.289 20.055 4.692 20.013 4.26C19.999 4.07959 19.9779 3.89979 19.95 3.721ZM8.95001 3.721L8.92501 3.553L8.89901 3.559C8.72131 2.72804 8.31197 1.96437 7.71835 1.35635C7.12472 0.748335 6.37107 0.320824 5.5446 0.123283C4.71813 -0.0742571 3.85262 -0.0337537 3.04821 0.240108C2.2438 0.513969 1.53337 1.00999 0.999124 1.67079C0.464875 2.33159 0.128642 3.13015 0.0293305 3.97408C-0.0699814 4.818 0.0716861 5.6728 0.437942 6.43957C0.804197 7.20634 1.38007 7.85373 2.09893 8.30685C2.81779 8.75997 3.65026 9.00029 4.50001 9C4.72301 9 4.93701 8.966 5.15001 8.935C5.08101 9.167 5.01 9.403 4.89601 9.615C4.78201 9.923 4.60401 10.19 4.42701 10.459C4.27901 10.75 4.01801 10.947 3.82601 11.196C3.62501 11.438 3.35101 11.599 3.13401 11.8C2.92101 12.01 2.64201 12.115 2.42001 12.263C2.18801 12.396 1.98601 12.543 1.77001 12.613L1.23101 12.835C0.930005 12.958 0.758005 13.03 0.758005 13.03L1.24201 14.969L1.83901 14.825C2.03001 14.777 2.26301 14.721 2.52801 14.654C2.79901 14.604 3.08801 14.467 3.41001 14.342C3.72701 14.199 4.09601 14.104 4.43801 13.875C4.78201 13.657 5.17901 13.475 5.52901 13.183C5.868 12.882 6.27701 12.621 6.57901 12.239C6.90901 11.881 7.23501 11.505 7.48801 11.077C7.78101 10.669 7.98001 10.221 8.19001 9.778C8.38 9.335 8.53301 8.882 8.65801 8.442C8.89501 7.56 9.00101 6.722 9.04201 6.005C9.07601 5.287 9.05601 4.69 9.01401 4.258C8.99907 4.0783 8.97773 3.89918 8.95001 3.721Z" fill="#57AC49"/>
</svg>
